<?xml version="1.0" standalone="no"?>
<!DOCTYPE svg PUBLIC "-//W3C//DTD SVG 20010904//EN"
 "http://www.w3.org/TR/2001/REC-SVG-20010904/DTD/svg10.dtd">
<svg version="1.0" xmlns="http://www.w3.org/2000/svg"
 width="512.000000pt" height="512.000000pt" viewBox="0 0 512.000000 512.000000"
 preserveAspectRatio="xMidYMid meet">
<metadata>
Created by potrace 1.14, written by Peter Selinger 2001-2017
</metadata>
<g transform="translate(0.000000,512.000000) scale(0.100000,-0.100000)"
fill="#000000" stroke="none">
<path d="M2315 5109 c-884 -91 -1649 -618 -2045 -1407 -379 -754 -355 -1674
62 -2402 321 -559 824 -972 1428 -1171 279 -92 485 -124 800 -124 131 0 265 6
320 14 580 80 1087 329 1490 733 403 404 651 909 731 1488 17 123 18 516 1
635 -73 511 -265 951 -577 1324 -411 490 -960 797 -1605 896 -126 19 -477 28
-605 14z m455 -939 c142 -35 274 -106 413 -223 l45 -37 94 54 c131 76 146 76
189 9 16 -27 33 -48 37 -48 4 0 71 22 149 48 78 27 155 47 170 45 24 -3 37
-18 87 -105 44 -77 57 -109 52 -127 -3 -14 -53 -65 -118 -122 -62 -53 -117
-101 -122 -105 -5 -5 3 -31 19 -62 27 -51 28 -56 13 -79 -22 -33 -222 -148
-258 -148 -19 0 -35 9 -47 26 l-19 26 -2 -85 c-5 -214 -89 -424 -233 -582 -15
-16 -41 -65 -57 -108 -39 -99 -97 -197 -161 -269 -58 -64 -59 -69 -40 -223 12
-101 39 -168 82 -199 27 -20 40 -21 260 -18 251 2 308 -4 397 -46 72 -34 179
-140 212 -212 41 -88 48 -145 48 -390 0 -217 -1 -231 -20 -250 -20 -20 -33
-20 -1409 -20 -1310 0 -1390 1 -1411 18 -21 17 -21 20 -18 287 l3 270 33 69
c43 92 92 150 166 198 106 68 129 72 416 73 275 0 293 3 332 55 24 33 46 145
49 251 l3 87 -52 57 c-61 66 -118 161 -157 260 -16 42 -51 99 -86 142 -76 95
-121 177 -159 290 -162 485 100 1010 585 1172 50 16 119 34 155 40 91 14 260
5 360 -19z m-1288 -1317 c13 -12 18 -31 18 -75 l0 -58 115 0 c155 0 155 0 155
-158 0 -130 -11 -162 -56 -162 l-24 0 0 -216 c0 -211 -5 -247 -34 -266 -6 -4
-101 -8 -211 -8 -166 0 -204 3 -223 16 -22 15 -22 19 -22 245 0 228 0 229 -22
229 -12 0 -30 7 -40 17 -16 14 -18 33 -18 144 0 161 -2 159 152 159 l108 0 0
55 c0 42 5 60 20 75 24 24 57 26 82 3z m2398 -153 c19 -19 20 -33 20 -245 l0
-225 24 0 c45 0 56 -32 56 -162 0 -171 26 -158 -323 -158 -240 0 -286 2 -305
16 -21 14 -22 22 -22 141 0 138 9 163 57 163 l23 0 0 225 c0 212 1 226 20 245
19 19 33 20 225 20 192 0 206 -1 225 -20z"/>
<path d="M2460 4069 c-97 -10 -216 -48 -310 -100 -102 -57 -242 -197 -299
-299 -110 -199 -135 -432 -68 -642 l24 -73 -1 135 c-1 119 2 142 23 193 53
133 181 253 338 316 120 48 140 61 213 128 62 58 95 108 129 195 12 31 54 47
80 31 9 -5 22 -21 30 -35 13 -23 13 -31 -3 -72 -10 -26 -35 -73 -56 -104 l-39
-57 109 -11 c138 -15 239 -43 347 -96 l42 -21 90 83 c50 46 91 89 91 96 0 6
-30 43 -66 83 -172 185 -415 276 -674 250z"/>
<path d="M3723 3853 c-57 -19 -103 -39 -103 -44 0 -14 73 -139 81 -139 3 0 43
32 88 71 l81 71 -22 37 c-12 20 -22 37 -22 37 -1 1 -47 -14 -103 -33z"/>
<path d="M3375 3854 c-22 -13 -40 -27 -40 -31 0 -17 228 -403 237 -403 8 0 58
27 86 45 4 3 -218 388 -232 401 -8 8 -22 5 -51 -12z"/>
<path d="M3135 3495 l-150 -144 100 30 c55 16 141 41 190 56 50 14 95 28 102
32 8 4 -3 32 -35 88 -26 46 -49 83 -52 82 -3 0 -72 -65 -155 -144z"/>
<path d="M2362 3526 c-125 -33 -269 -103 -329 -160 -91 -85 -117 -170 -102
-336 24 -263 95 -483 201 -626 128 -172 331 -247 536 -199 196 46 341 202 426
458 82 249 101 611 30 599 -11 -2 -86 -24 -167 -48 -82 -24 -155 -44 -163 -44
-25 0 -64 47 -64 77 0 22 21 49 97 125 l97 97 -40 17 c-98 41 -170 56 -299 60
-115 4 -141 1 -223 -20z m-21 -392 c23 -21 24 -61 2 -86 -12 -13 -31 -18 -72
-18 -44 0 -65 -6 -93 -25 -47 -32 -71 -32 -97 2 -26 33 -20 59 22 96 62 55
193 72 238 31z m142 -469 c20 -8 55 -15 77 -15 22 0 57 7 77 15 19 8 45 15 56
15 49 0 76 -70 40 -102 -61 -53 -165 -71 -257 -44 -94 28 -131 81 -86 126 24
24 45 25 93 5z"/>
<path d="M3320 3323 c-8 -3 -25 -10 -37 -14 -22 -8 -22 -9 -7 -51 16 -44 22
-211 10 -280 l-6 -33 15 33 c9 18 23 59 31 90 18 66 31 262 18 261 -5 0 -16
-3 -24 -6z"/>
<path d="M2246 2107 c-3 -18 -8 -58 -11 -91 -16 -142 -65 -230 -153 -273 l-57
-28 -261 -1 -262 -2 -61 -27 c-71 -32 -142 -102 -174 -173 -20 -43 -22 -66
-25 -260 l-3 -213 163 3 163 3 5 133 c4 117 7 135 24 148 17 12 164 14 957 14
l938 0 20 -26 c19 -24 21 -40 21 -151 l0 -123 163 2 162 3 0 205 c0 200 -1
206 -26 261 -47 101 -138 177 -231 194 -20 4 -148 8 -285 9 -238 1 -250 2
-296 24 -93 46 -139 135 -159 302 l-12 99 -28 -15 c-58 -30 -180 -54 -272 -54
-94 0 -177 16 -253 50 l-42 19 -5 -32z"/>
<path d="M1694 1207 c-3 -8 -4 -47 -2 -88 l3 -74 853 -3 852 -2 0 90 0 90
-850 0 c-703 0 -852 -2 -856 -13z"/>
<path d="M1240 2560 l0 -40 203 2 202 3 0 35 0 35 -202 3 -203 2 0 -40z"/>
<path d="M1320 2215 l0 -185 120 0 120 0 0 185 0 185 -120 0 -120 0 0 -185z"/>
<path d="M3537 2594 c-4 -4 -7 -88 -7 -186 l0 -179 123 3 122 3 0 180 0 180
-116 3 c-63 1 -118 -1 -122 -4z"/>
<path d="M3450 2070 l0 -40 203 2 202 3 3 38 3 37 -205 0 -206 0 0 -40z"/>
</g>
</svg>
