<?xml version="1.0" standalone="no"?>
<!DOCTYPE svg PUBLIC "-//W3C//DTD SVG 20010904//EN"
 "http://www.w3.org/TR/2001/REC-SVG-20010904/DTD/svg10.dtd">
<svg version="1.0" xmlns="http://www.w3.org/2000/svg"
 width="512.000000pt" height="512.000000pt" viewBox="0 0 512.000000 512.000000"
 preserveAspectRatio="xMidYMid meet">
<metadata>
Created by potrace 1.14, written by Peter Selinger 2001-2017
</metadata>
<g transform="translate(0.000000,512.000000) scale(0.100000,-0.100000)"
fill="#000000" stroke="none">
<path d="M2379 5116 c-2 -2 -40 -6 -83 -10 -44 -4 -82 -8 -85 -10 -3 -2 -31
-7 -61 -11 -30 -3 -75 -11 -100 -17 -25 -5 -56 -12 -70 -14 -14 -3 -72 -18
-129 -35 -468 -134 -913 -418 -1222 -780 -24 -28 -49 -56 -54 -63 -25 -27
-126 -167 -167 -231 -172 -265 -297 -573 -357 -880 -40 -200 -46 -267 -45
-515 0 -183 3 -241 19 -345 3 -16 7 -43 9 -60 2 -16 12 -66 21 -110 162 -780
686 -1444 1410 -1789 53 -25 98 -46 101 -46 4 0 20 -7 37 -15 64 -29 265 -93
360 -115 120 -27 111 -25 172 -34 28 -4 61 -10 75 -12 117 -20 465 -26 610
-11 490 50 934 231 1330 543 143 112 243 210 384 374 84 99 212 289 283 421
35 65 74 149 128 274 10 25 63 177 72 210 76 275 98 439 98 730 0 217 -8 316
-41 480 -55 282 -155 548 -297 795 -27 47 -99 161 -114 180 -6 8 -38 51 -71
95 -245 327 -600 608 -998 787 -161 73 -452 161 -605 182 -25 4 -57 9 -70 11
-77 13 -135 17 -325 20 -117 2 -213 3 -215 1z"/>
</g>
</svg>
